<svg width="311px" height="75px" viewBox="0 0 311 75" version="1.1" xmlns="http://www.w3.org/2000/svg" xmlns:xlink="http://www.w3.org/1999/xlink">
    <!-- Generator: Sketch 49.1 (51147) - http://www.bohemiancoding.com/sketch -->
    <desc>Created with Sketch.</desc>
    <defs></defs>
    <g id="Page-1" stroke="none" stroke-width="1" fill="none" fill-rule="evenodd">
        <g id="A4" transform="translate(-142.000000, -158.000000)" fill="#FFFFFF">
            <path d="M199.763036,205.629471 C201.571894,213.094783 192.557532,214.714613 188.586974,213.742627 C184.616416,212.770641 176.517704,212.608735 176.517704,212.608735 C176.517704,212.608735 168.396549,212.770751 164.425991,213.742627 C160.455433,214.721341 151.43359,213.094673 153.234966,205.629471 C155.036343,198.164269 162.977458,198.488191 165.154121,188.424335 C167.323303,178.360478 176.525308,179.008432 176.525308,179.008432 C176.525308,179.008432 185.704747,178.360478 187.874052,188.424335 C190.03563,198.488191 197.96166,198.164158 199.763036,205.629471 Z M183.92128,177.746037 C188.593125,178.977739 193.753014,175.610124 195.453903,170.22436 C197.154674,164.845233 194.750564,159.485698 190.07872,158.253996 C185.406758,157.022187 180.246986,160.389909 178.546097,165.775674 C176.845326,171.1548 179.249436,176.514335 183.92128,177.746037 Z M203.851466,175.488044 C199.187623,173.788444 193.460038,176.669781 191.057378,181.9275 C188.654719,187.185436 190.484668,192.821736 195.148511,194.514503 C199.812354,196.207378 205.53994,193.332766 207.942599,188.074939 C210.345258,182.817111 208.51543,177.187536 203.851466,175.488044 Z M167.078458,177.745935 C171.750509,176.51372 174.154725,171.152522 172.453879,165.771619 C170.753032,160.390716 165.585761,157.021883 160.920747,158.254098 C156.255849,159.486206 153.84448,164.847404 155.545326,170.228414 C157.24629,175.609317 162.406407,178.978044 167.078458,177.745935 Z M155.85144,194.512044 C160.515428,192.812714 162.345265,187.176953 159.942594,181.926243 C157.539922,176.675534 151.812308,173.787964 147.148441,175.487403 C142.484575,177.186732 140.654738,182.822494 143.05741,188.073095 C145.459959,193.330421 151.187574,196.211374 155.85144,194.512044 Z" id="Shape" fill-rule="nonzero"></path>
            <text id="lostpet" font-family="OdinRounded, Odin Rounded" font-size="77" font-weight="normal">
                <tspan x="229" y="214">lostpet</tspan>
            </text>
        </g>
    </g>
</svg>
