
<svg width="500px" height="500px" viewBox="0 0 500 500" version="1.1" xmlns="http://www.w3.org/2000/svg" xmlns:xlink="http://www.w3.org/1999/xlink">
    <!-- Generator: Sketch 49.1 (51147) - http://www.bohemiancoding.com/sketch -->
    <desc>Created with Sketch.</desc>
    <defs>
        <polygon id="path-1" points="0.06 0 500 0 500 500 0.06 500"></polygon>
        <polygon id="path-3" points="0.06 0.00368269322 434.777 0.00368269322 434.777 222.286 0.06 222.286"></polygon>
        <polygon id="path-5" points="0.638 0.094 327 0.094 327 248.772 0.638 248.772"></polygon>
        <polygon id="path-7" points="0.06 0.711 435.929 0.711 435.929 29.059 0.06 29.059"></polygon>
        <polygon id="path-9" points="0.06 0.820066408 500 0.820066408 500 483 0.06 483"></polygon>
        <path d="M4.806,13.312 C4.692,13.2 4.579,13.088 4.467,12.976 C3.645,12.158 2.856,11.351 2.101,10.557 C1.789,10.229 1.484,9.903 1.183,9.579 C-0.364,5.674 6.415,3.613 6.415,3.613 L6.456,3.613 C9.754,2.334 14.36,1.159 19.473,0.218 C17.75,2.453 15.741,4.84 13.401,7.374 C12.214,8.661 10.941,9.985 9.577,11.348 C9.1,11.824 8.614,12.303 8.115,12.788 C7.039,12.961 5.936,13.135 4.806,13.312" id="path-11"></path>
        <path d="M22.903,32.546 C17.733,32.546 13.542,28.355 13.542,23.185 C13.542,18.014 17.733,13.822 22.903,13.822 C28.075,13.822 32.267,18.014 32.267,23.185 C32.267,28.355 28.075,32.546 22.903,32.546 Z M22.903,0.99 C10.912,0.99 1.169,10.506 0.751,22.396 L0.71,22.396 C0.71,22.396 -2.152,35.276 22.806,59.311 C33.991,48.539 39.579,40.014 42.351,33.878 C44.1,30.706 45.099,27.063 45.099,23.185 C45.099,10.926 35.163,0.99 22.903,0.99 Z" id="path-13"></path>
        <path d="M22.903,32.546 C17.733,32.546 13.542,28.355 13.542,23.185 C13.542,18.014 17.733,13.822 22.903,13.822 C28.075,13.822 32.267,18.014 32.267,23.185 C32.267,28.355 28.075,32.546 22.903,32.546 Z M22.903,0.99 C10.912,0.99 1.169,10.506 0.751,22.396 L0.71,22.396 C0.71,22.396 -2.152,35.276 22.806,59.311 C33.991,48.539 39.579,40.014 42.351,33.878 C44.1,30.706 45.099,27.063 45.099,23.185 C45.099,10.926 35.163,0.99 22.903,0.99 Z" id="path-15"></path>
        <ellipse id="path-17" cx="59" cy="142" rx="31" ry="30"></ellipse>
        <ellipse id="path-19" cx="389" cy="86.5" rx="15" ry="14.5"></ellipse>
        <ellipse id="path-21" cx="87" cy="58.5" rx="15" ry="14.5"></ellipse>
    </defs>
    <g id="Page-1" stroke="none" stroke-width="1" fill="none" fill-rule="evenodd">
        <g id="117064-OPGZ6G-943">
            <g id="Group-3">
                <mask id="mask-2" fill="white">
                    <use xlink:href="#path-1"></use>
                </mask>
                <g id="Clip-2"></g>
                <polygon id="Fill-1" fill="#EFE9DF" mask="url(#mask-2)" points="0.06 500 500 500 500 0 0.06 0"></polygon>
            </g>
            <polyline id="Fill-35" fill="#C6DDA7" points="223.703 23.963 373.974 4.31 359.531 0.82 163.91 0.82 223.703 23.963"></polyline>
            <g id="Group-39" transform="translate(0.000000, 5.000000)">
                <mask id="mask-4" fill="white">
                    <use xlink:href="#path-3"></use>
                </mask>
                <g id="Clip-37"></g>
                <polyline id="Fill-36" fill="#C6DDA7" mask="url(#mask-4)" points="174.805 99.959 254.421 84.2 434.777 205.554 399.453 222.286 303.668 140.462 174.805 99.959"></polyline>
                <path d="M-31.334,27.925 L-13.478,3.696 C-13.478,3.696 87.155,-2.154 106.666,0.873 C126.66,3.975 131.719,0.613 141.964,0.873 C152.23,1.133 167.517,7.629 159.424,12.962 C149.561,19.255 140.575,19.315 124.588,17.293 C108.842,15.301 101.281,13.061 88.663,17.006 C55.705,28.005 -24.543,27.324 -31.334,27.925" id="Fill-38" fill="#A1BBD7" mask="url(#mask-4)"></path>
            </g>
            <path d="M483.91,164.688 C471.564,159.149 457.27,158.37 448.987,149.199 C441.022,140.379 437.651,138.941 431.527,135.387 C425.497,131.889 418,134.796 405.996,131.196 C389.333,125.848 381,129.978 390.333,142.368 C399.353,155.431 422.618,155.273 427.785,160.719 C433.074,166.292 438.553,191.748 480.637,177.847 C480.637,177.847 495.505,173.188 483.91,164.688" id="Fill-40" fill="#A1BBD7"></path>
            <polyline id="Fill-41" fill="#C0AC95" points="433.298 293.128 369.822 332.891 329.954 312.288 404.204 267.988 433.298 293.128"></polyline>
            <polyline id="Fill-42" fill="#E4DCCE" points="500 454.341 396.267 409.615 420.037 361.738 380.886 340.592 440.581 301.087 500 351.589 500 454.341"></polyline>
            <polyline id="Fill-43" fill="#C0AC95" points="178.177 213.896 159.293 208.216 167.734 197.23 186.256 202.636 178.177 213.896"></polyline>
            <polyline id="Fill-44" fill="#C0AC95" points="150.634 252.449 130.55 245.78 140.43 232.915 160.11 239.237 150.634 252.449"></polyline>
            <polyline id="Fill-45" fill="#C0AC95" points="219.158 224.899 199.184 219.249 206.665 207.635 226.22 213.003 219.158 224.899"></polyline>
            <polyline id="Fill-46" fill="#C0AC95" points="207.566 244.848 186.896 238.711 195.004 226.112 215.227 231.931 207.566 244.848"></polyline>
            <polyline id="Fill-47" fill="#C0AC95" points="128.636 219.132 109.983 213.621 119.587 202.284 137.885 207.522 128.636 219.132"></polyline>
            <polyline id="Fill-48" fill="#C0AC95" points="188.768 141.745 170.115 137.696 179.719 126.359 198.017 131.89 188.768 141.745"></polyline>
            <polyline id="Fill-49" fill="#C0AC95" points="446.143 267.132 429.497 253.261 456.078 236.563 471.337 249.394 446.143 267.132"></polyline>
            <polyline id="Fill-50" fill="#C0AC95" points="47.775 200.73 33.679 192.438 46.03 183.264 60.055 191.207 47.775 200.73"></polyline>
            <polyline id="Fill-51" fill="#C0AC95" points="22.576 185.86 8.479 177.567 20.831 168.394 34.855 176.337 22.576 185.86"></polyline>
            <polyline id="Fill-52" fill="#C0AC95" points="83.193 143.842 69.85 138.796 101.668 123.438 112.138 126.887 83.193 143.842"></polyline>
            <g id="Group-56" transform="translate(173.000000, 17.000000)">
                <mask id="mask-6" fill="white">
                    <use xlink:href="#path-5"></use>
                </mask>
                <g id="Clip-54"></g>
                <polyline id="Fill-53" fill="#C0AC95" mask="url(#mask-6)" points="22.016 248.772 0.638 242.1 9.44 228.428 30.343 234.74 22.016 248.772"></polyline>
                <polyline id="Fill-55" fill="#C0AC95" mask="url(#mask-6)" points="197.831 11.837 274 0.094 286.197 5.35 337.855 0.527 338.667 8.354 218.046 20.342 197.831 11.837"></polyline>
            </g>
            <polyline id="Fill-57" fill="#C0AC95" points="360.768 19.901 329.755 24.444 323.941 22.606 354.842 18.125 360.768 19.901"></polyline>
            <polyline id="Fill-58" fill="#C0AC95" points="413.648 11.12 382.636 15.663 376.822 13.826 407.723 9.344 413.648 11.12"></polyline>
            <polyline id="Fill-60" fill="#C0AC95" points="305.845 28.341 272.843 33.184 267.243 31.225 300.114 26.451 305.845 28.341"></polyline>
            <polyline id="Fill-61" fill="#C0AC95" points="145.063 34.143 174.234 35.726 170.628 38.805 140.6 36.992 145.063 34.143"></polyline>
            <polyline id="Fill-62" fill="#C0AC95" points="97.768 31.48 126.524 33.045 122.441 36.09 92.872 34.298 97.768 31.48"></polyline>
            <polyline id="Fill-63" fill="#C0AC95" points="17.001 100.036 81.768 91.087 87.055 101.202 17.532 114.576 17.001 100.036"></polyline>
            <polyline id="Fill-64" fill="#C0AC95" points="172.822 77.881 220.035 68.827 225.774 74.092 176.333 85.237 172.822 77.881"></polyline>
            <polyline id="Fill-65" fill="#C0AC95" points="365.346 60.734 381.171 60.273 391.941 68.36 376.031 68.872 365.346 60.734"></polyline>
            <polyline id="Fill-66" fill="#C0AC95" points="301.411 45.289 312.948 43.516 322.737 50.8 308.264 51.483 301.411 45.289"></polyline>
            <g id="Group-70" transform="translate(0.000000, 39.000000)">
                <mask id="mask-8" fill="white">
                    <use xlink:href="#path-7"></use>
                </mask>
                <g id="Clip-68"></g>
                <polyline id="Fill-67" fill="#C0AC95" mask="url(#mask-8)" points="409.438 20.82 423.638 20.263 435.929 28.38 421.888 29.059 409.438 20.82"></polyline>
                <polyline id="Fill-69" fill="#DCD2C3" mask="url(#mask-8)" points="67.684 25.152 0 19.495 0 4.456 99.322 0.711 173.574 3.836 164.959 11.962 120.711 11.927 67.684 25.152"></polyline>
            </g>
            <polyline id="Fill-71" fill="#DCD2C3" points="264.099 211.606 134.582 176.019 165.358 146.94 237.82 161.817 250.106 142.116 294.854 153.473 325.527 180.141 264.099 211.606"></polyline>
            <path d="M342.112,45.541 L322.055,32.208 L350.284,27.515 L372.812,37.352 C373.576,38.903 374.494,40.557 375.597,42.313 L342.112,45.541" id="Fill-72" fill="#E4DCCE"></path>
            <path d="M407.66,39.25 C408.497,37.919 409.221,36.659 409.848,35.473 L500,26.513 L500,30.488 L407.66,39.25 M370.881,32.807 L356.281,26.516 L369.2,24.284 C369.218,26.216 369.562,29.086 370.881,32.807 M383.614,26.866 C382.747,25.516 382.244,23.909 382.244,22.185 C382.244,22.133 382.245,22.081 382.246,22.03 L399.041,19.128 C399.399,20.079 399.595,21.108 399.595,22.185 C399.595,22.968 399.491,23.727 399.296,24.448 L383.614,26.866 M459.197,22.35 L447,17.094 L413.868,22.202 C413.868,22.196 413.868,22.19 413.868,22.185 C413.868,20.286 413.63,18.443 413.182,16.684 L500,1.682 L500,18.541 L459.197,22.35" id="Fill-73" fill="#E4DCCE"></path>
            <path d="M409.848,35.473 C410.327,34.566 410.749,33.7 411.12,32.878 C412.867,29.711 413.865,26.074 413.868,22.202 L447,17.094 L459.197,22.35 L500,18.541 L500,26.513 L409.848,35.473 M390.919,30.86 C387.852,30.86 385.157,29.268 383.614,26.866 L399.296,24.448 C398.301,28.142 394.928,30.86 390.919,30.86" id="Fill-74" fill="#B7A38C"></path>
            <g id="Group-84" transform="translate(0.000000, 34.000000)">
                <mask id="mask-10" fill="white">
                    <use xlink:href="#path-9"></use>
                </mask>
                <g id="Clip-76"></g>
                <polyline id="Fill-75" fill="#E4DCCE" mask="url(#mask-10)" points="350.387 87.419 285.357 48.564 298.306 44.605 320.039 47.625 350.387 87.419"></polyline>
                <path d="M382.622,7.636 L342.112,11.541 L322.055,-1.792 L350.284,-6.485 L382.622,7.636 M304.691,21.129 L285.363,4.307 L316.43,-0.857 L347.019,19.826 L304.691,21.129 M246.288,-5.14 C247.332,-5.14 284.491,-10.199 353.053,-19.665 L373.111,-13.728 L349.118,-9.79 L349.116,-9.79 L248.692,6.689 C247.137,6.945 246.205,7.922 246.614,8.878 C246.959,9.682 248.144,10.214 249.443,10.214 C249.697,10.214 249.957,10.194 250.215,10.151 L279.645,5.258 L297.738,21.343 L239.386,23.14 C237.683,23.192 236.328,24.124 236.36,25.228 C236.391,26.308 237.734,27.154 239.389,27.154 L239.543,27.152 L382.844,22.683 L425.449,52.499 C426.48,53.217 427.79,53.612 428.912,53.612 C429.536,53.612 430.099,53.491 430.524,53.239 C431.714,52.531 431.373,51.062 429.773,49.96 L389.813,22.465 L425.895,21.34 L477.383,56.395 C478.557,57.194 480.032,57.646 481.232,57.646 C481.803,57.646 482.311,57.543 482.693,57.33 C483.879,56.664 483.422,55.178 481.683,54.014 L432.612,21.13 L487.643,19.725 C489.291,19.674 489.954,18.765 489.125,17.702 C488.304,16.646 486.315,15.835 484.694,15.888 L354.243,19.604 L347.19,14.917 L513.667,-1.075 C515.151,-1.22 515.614,-2.11 514.712,-3.058 C513.816,-3.999 511.909,-4.639 510.442,-4.502 L389.771,6.947 L356.281,-7.484 L514.049,-34.745 C515.311,-34.956 515.586,-35.753 514.667,-36.523 C513.755,-37.288 512.008,-37.738 510.754,-37.533 L379.775,-14.822 L359.961,-20.619 C371.65,-22.234 449.636,-35.637 462.866,-37.469 C464.148,-37.645 464.561,-38.392 463.795,-39.13 C463.032,-39.865 461.392,-40.316 460.119,-40.143 C448.136,-38.504 367.61,-24.776 351.708,-22.608 L351.686,-22.604 C304.594,-16.183 249.239,-8.667 246.033,-8.346 C244.649,-8.261 243.555,-7.585 243.534,-6.758 C243.514,-5.866 244.744,-5.14 246.288,-5.14" id="Fill-77" fill="#FFFFFE" mask="url(#mask-10)"></path>
                <path d="M341.302,242.456 L272.008,178.766 L325.487,151.056 L393.751,210.827 L341.302,242.456 Z M309.397,261.693 L265.703,235.547 L280.026,198.933 L332.027,248.048 L309.397,261.693 Z M275.946,281.867 L204.725,258.04 L245.102,177.375 L261.808,181.725 L272.286,191.621 L254.103,235.564 C252.96,238.324 253.961,241.643 256.418,243.15 L297.908,268.624 L275.946,281.867 Z M133.292,148.279 L158.775,154.911 L102.579,223.864 L72.725,213.876 L133.292,148.279 Z M111.889,226.98 L167.196,157.103 L195.691,164.518 L145.471,238.217 L111.889,226.98 Z M155.271,241.493 L204.441,166.794 L236.01,175.01 L194.372,254.575 L155.271,241.493 Z M163.023,116.077 L236.753,131.356 C238.617,131.742 240.569,130.963 241.48,129.474 L253.559,109.738 L292.772,122.411 L318.483,144.924 L263.413,172.815 L168.375,148.584 C167.993,148.426 167.594,148.315 167.173,148.278 L139.748,141.286 L163.023,116.077 Z M49.154,176.857 L-33.624,185.859 L-15.282,134.971 L14.858,123.982 L75.626,154.286 L49.154,176.857 Z M46.686,111.44 L103.875,130.199 L83.475,147.593 L25.957,119.609 L46.686,111.44 Z M340.464,56.314 L361.959,59.17 C364.766,63.896 371.978,73.703 376.516,79.774 L357.503,76.553 L340.464,56.314 Z M385.322,81.267 C380.006,74.419 373.05,65.208 369.66,60.193 L390.977,63.027 L405.828,84.741 L385.322,81.267 Z M456.78,93.374 L414.422,86.197 L398.827,64.07 L440.604,69.622 L456.78,93.374 Z M547.856,123.526 C545.566,121.785 542.591,121.07 541.181,121.918 L514,138.31 L445.423,97.121 L490.955,104.954 C491.289,105.012 491.609,105.04 491.91,105.04 C492.774,105.04 493.477,104.805 493.892,104.361 C494.442,103.765 494.413,102.858 493.811,101.898 L465.057,56.012 C464.215,54.67 462.011,53.576 460.125,53.559 L460.08,53.559 C458.226,53.559 457.373,54.617 458.181,55.949 L483.623,97.922 L465.451,94.843 L446.029,67.161 C445.227,66.017 443.546,65.088 441.898,64.872 L392.718,58.428 L392.681,58.423 L335.987,50.997 L324.997,37.941 C324.062,36.829 322.063,36.298 320.515,36.749 C318.967,37.201 318.449,38.473 319.371,39.598 L352.47,79.975 C353.158,80.817 354.294,81.442 355.516,81.653 L430.919,94.626 L508.181,141.819 L401.593,206.096 L297.625,117.195 C297.15,116.79 296.581,116.475 295.964,116.28 L140.258,66.86 C138.612,66.337 136.351,66.998 135.193,68.341 C134.027,69.695 134.42,71.236 136.083,71.773 L162.416,80.284 L111.048,124.083 L91.172,117.697 L135.089,90.995 C136.196,90.322 136.916,89.352 137.021,88.396 C137.125,87.446 136.606,86.635 135.635,86.219 L107.292,74.101 C105.768,73.447 103.382,74.012 101.947,75.364 C100.502,76.726 100.561,78.381 102.097,79.05 L126.384,89.649 L84.365,114.744 C84.094,114.906 83.842,115.081 83.609,115.267 L50.961,104.779 C50.033,104.481 48.79,104.584 47.553,105.064 L-12.627,127.607 L-3.318,101.781 C-2.722,100.128 -4.1,99.094 -6.395,99.462 C-8.693,99.83 -11.072,101.467 -11.706,103.131 L-45.232,191.021 L-45.295,191.118 C-45.566,191.623 -45.722,192.096 -45.814,192.544 L-152.814,473.043 C-155.001,478.771 -153.854,482.714 -150.307,482.714 C-149.745,482.714 -149.125,482.615 -148.451,482.407 C-143.518,480.903 -137.59,474.292 -135.23,467.746 L-36.978,195.164 L48.036,185.925 C49.5,185.83 51.114,185.107 52.428,183.96 L168.979,82.404 L246.15,107.343 L235.758,123.707 L163.564,109.019 C161.953,108.69 160.061,109.309 158.888,110.547 L60.523,214.4 C59.177,215.821 58.377,217.563 58.361,219.117 C58.345,220.678 59.126,221.871 60.477,222.335 L191.925,267.448 C192.292,267.905 192.711,268.318 193.224,268.624 C193.957,269.058 194.756,269.263 195.566,269.263 C195.961,269.263 196.356,269.197 196.749,269.103 L275.564,296.152 C276.1,296.334 276.644,296.426 277.186,296.426 C278.075,296.426 278.95,296.178 279.735,295.689 L312.733,275.217 C313.072,275.059 313.395,274.859 313.691,274.62 L344.283,255.64 C344.759,255.451 345.2,255.19 345.589,254.828 L403.187,219.091 L559.788,356.209 C562.04,358.181 564.333,359.193 566.133,359.193 C567.674,359.193 568.852,358.457 569.338,356.964 C570.394,353.746 567.859,348.267 563.729,344.736 L411.068,214.199 L549.499,128.303 C550.911,127.428 550.166,125.284 547.856,123.526 Z" id="Fill-78" fill="#FFFFFE" mask="url(#mask-10)"></path>
                <path d="M61.385,31.682 L132.873,40.014 C133.044,40.035 133.219,40.044 133.393,40.044 C134.959,40.044 136.614,39.277 137.26,38.202 C137.973,37.015 137.184,35.903 135.503,35.71 L75.451,28.812 L120.436,18.841 L164.397,18.877 L164.414,18.877 L241.814,18.939 L241.817,18.939 C243.495,18.939 244.869,18.08 244.89,17.026 C244.91,15.979 243.583,15.135 241.927,15.134 L170.302,15.077 L193.95,-6.956 C194.807,-7.771 194.445,-8.747 193.148,-9.141 C191.857,-9.534 190.111,-9.2 189.245,-8.393 L172.343,6.973 L130.338,5.217 L147.677,-5.461 C148.852,-6.185 148.953,-7.19 147.91,-7.709 C146.873,-8.227 145.085,-8.068 143.909,-7.354 L123.639,4.936 L100.446,3.967 C100.316,3.961 100.186,3.962 100.051,3.967 L70.229,5.185 L104.123,-8.193 C105.581,-8.769 106.237,-9.766 105.594,-10.419 C104.954,-11.068 103.267,-11.135 101.816,-10.57 L60.377,5.586 L-18.319,8.767 C-19.976,8.834 -21.85,9.683 -22.507,10.669 C-23.169,11.663 -22.35,12.421 -20.666,12.347 L98.379,7.485 L168.594,10.459 L163.634,15.071 L121.545,15.038 L121.541,15.038 C121.171,15.038 120.785,15.081 120.402,15.165 L63.964,27.519 L-33,19.23 C-34.593,19.101 -36.737,19.88 -37.798,20.981 C-38.866,22.09 -38.432,23.104 -36.82,23.238 L45.098,30.329 L2.505,52.825 C0.553,53.855 -0.367,55.378 0.465,56.226 C0.825,56.591 1.454,56.769 2.21,56.769 C3.209,56.769 4.428,56.458 5.542,55.861 L52.124,30.913 L61.385,31.682" id="Fill-79" fill="#FFFFFE" mask="url(#mask-10)"></path>
                <path d="M515.386,53.936 L298.793,31.158 C297.747,31.035 296.696,31.064 295.712,31.244 L260.276,37.727 L239.965,24.956 L255.328,13.639 C256.556,12.737 257.082,11.554 256.788,10.394 C256.495,9.245 255.42,8.229 253.84,7.602 L163.656,-29.075 C161.36,-29.983 159.743,-30.587 157.52,-29.202 C155.272,-27.801 156.787,-27.306 159.093,-26.377 L240.356,11.838 L227.028,21.239 L-9.543,48.535 C-14.023,49.077 -21.277,54.707 -22.895,57.66 C-24.347,60.313 -25.069,65.242 -21.385,65.242 C-20.897,65.242 -20.373,65.207 -19.822,65.138 L227.915,30.208 L244.369,41.005 L-42.958,100.204 C-48.42,101.363 -54.122,105.345 -55.691,109.161 C-56.986,112.31 -58.238,118.427 -54.39,118.427 C-53.491,118.427 -52.49,118.314 -51.404,118.074 L256.587,49.021 L740.737,373.786 C746.535,377.634 751.717,379.557 755.438,379.557 C759.405,379.557 766.733,373.629 766.262,369.377 C765.365,361.287 765.396,348.896 753.789,341.67 L273.068,45.771 L299.337,40.806 L525.478,70.068 C530.268,70.652 530.965,66.44 529.184,63.325 C527.437,60.265 519.933,54.465 515.386,53.936" id="Fill-80" fill="#F9D077" mask="url(#mask-10)"></path>
                <path d="M513.611,453.936 C512.166,453.936 510.559,453.592 508.885,452.865 L-60.009,217.533 C-62.777,216.334 -62.846,213.455 -60.21,211.124 C-57.605,208.82 -53.311,207.897 -50.576,209.044 L513.504,437.526 C519.09,439.867 520.344,443.892 520.098,448.723 C519.922,452.199 517.123,453.936 513.611,453.936" id="Fill-81" fill="#FFFFFE" mask="url(#mask-10)"></path>
                <polyline id="Fill-82" fill="#FFFFFE" mask="url(#mask-10)" points="32.449 248.571 22.884 245.557 42.218 180.166 51.782 183.181 32.449 248.571"></polyline>
                <polyline id="Fill-83" fill="#E4DCCE" mask="url(#mask-10)" points="0 417.38 0 258.225 340 404 0 417.38"></polyline>
            </g>
            <polyline id="Fill-91" fill="#1D5E9C" points="55.483 204.437 47.468 211.3 47.115 203.83 54.929 197.561 55.483 204.437"></polyline>
            <path d="M52.842,218.17 C48.575,215.341 46.341,212.8 45.453,210.557 C47.753,213.036 50.213,215.574 52.842,218.17 M59.595,217.102 C60.862,215.87 62.092,214.653 63.289,213.451 L68.584,215.641 C65.694,216.119 62.699,216.606 59.595,217.102 M93.814,211.237 L73.24,202.904 C76.813,198.897 79.971,195.082 82.762,191.463 C97.8,188.695 114.99,186.917 129.434,186.917 C154.437,186.917 161.691,192.242 145.635,198.81 C140.555,200.889 133.744,202.842 126.023,204.541 C118.375,206.378 107.958,208.614 93.814,211.237 M112.625,193.794 C102.079,193.794 88.04,196.04 81.268,198.81 C74.494,201.581 77.554,203.827 88.1,203.827 C98.648,203.827 112.688,201.581 119.461,198.81 C126.234,196.04 123.173,193.794 112.625,193.794" id="Fill-95" fill="#D0CDC4"></path>
            <path d="M52.842,218.17 C50.213,215.574 47.753,213.036 45.453,210.557 C42.298,202.591 56.126,198.388 56.126,198.388 L56.208,198.388 C62.936,195.778 72.331,193.382 82.762,191.463 C79.971,195.082 76.813,198.897 73.24,202.904 C70.227,206.283 66.92,209.799 63.289,213.451 C62.092,214.653 60.862,215.87 59.595,217.102 C57.4,217.453 55.148,217.809 52.842,218.17" id="Fill-97" fill="#36723A"></path>
            <path d="M57.153,162.176 C47.38,162.176 39.459,154.254 39.459,144.479 C39.459,134.706 47.38,126.782 57.153,126.782 C66.928,126.782 74.851,134.706 74.851,144.479 C74.851,154.254 66.928,162.176 57.153,162.176 M58.491,218.17 C81.309,196.196 92.706,178.808 98.359,166.293 C101.926,159.823 103.965,152.392 103.965,144.479 C103.965,119.476 83.697,99.208 58.693,99.208 C34.232,99.208 14.36,118.619 13.507,142.872 L13.424,142.872 C13.425,142.872 4.983,170.917 52.842,218.17 L58.491,218.17" id="Fill-94" fill="#3D803F"></path>
            <path d="M68.584,215.641 L63.289,213.451 C66.92,209.799 70.227,206.283 73.24,202.904 L93.814,211.237 C86.457,212.601 78.093,214.07 68.584,215.641" id="Fill-96" fill="#D0CDC4"></path>
            <path d="M388.806,82.312 C388.638,82.201 388.476,82.09 388.322,81.981 L388.467,81.976 C388.579,82.088 388.692,82.2 388.806,82.312" id="Fill-104" fill="#E2E4DF"></path>
            <path d="M388.322,81.981 C387.101,81.12 386.268,80.317 385.735,79.57 L386.101,79.557 C386.856,80.351 387.645,81.158 388.467,81.976 L388.322,81.981" id="Fill-105" fill="#19466C"></path>
            <path d="M385.735,79.57 C385.49,79.228 385.309,78.897 385.183,78.579 C385.484,78.903 385.789,79.229 386.101,79.557 L385.735,79.57" id="Fill-106" fill="#2E72AC"></path>
            <path d="M392.115,122.788 C392.614,122.303 393.1,121.824 393.577,121.348 L402.427,121.072 C399.298,121.616 395.869,122.188 392.115,122.788 M397.401,117.374 C399.741,114.84 401.75,112.453 403.473,110.218 C410.846,108.861 419.273,107.99 426.353,107.99 C438.613,107.99 442.169,110.6 434.298,113.82 C431.844,114.824 428.567,115.768 424.85,116.593 L397.401,117.374 M418.114,111.361 C412.943,111.361 406.061,112.462 402.741,113.82 C399.421,115.179 400.92,116.28 406.091,116.28 C411.263,116.28 418.145,115.179 421.466,113.82 C424.785,112.462 423.286,111.361 418.114,111.361" id="Fill-107" fill="#D0CDC4"></path>
            <path d="M393.577,80.348 C394.941,78.985 396.214,77.661 397.401,76.374 L424.85,75.593 C424.794,75.605 424.738,75.617 424.682,75.63 C419.852,76.79 412.768,78.275 402.427,80.072 L393.577,80.348" id="Fill-108" fill="#E2E4DF"></path>
            <g id="Group-111" transform="translate(384.000000, 69.000000)">
                <mask id="mask-12" fill="white">
                    <use xlink:href="#path-11"></use>
                </mask>
                <g id="Clip-110"></g>
                <path d="M4.806,13.312 C4.692,13.2 4.579,13.088 4.467,12.976 C3.645,12.158 2.856,11.351 2.101,10.557 C1.789,10.229 1.484,9.903 1.183,9.579 C-0.364,5.674 6.415,3.613 6.415,3.613 L6.456,3.613 C9.754,2.334 14.36,1.159 19.473,0.218 C17.75,2.453 15.741,4.84 13.401,7.374 C12.214,8.661 10.941,9.985 9.577,11.348 C9.1,11.824 8.614,12.303 8.115,12.788 C7.039,12.961 5.936,13.135 4.806,13.312" id="Fill-109" mask="url(#mask-12)"></path>
            </g>
            <g id="Group-114" transform="translate(366.000000, 64.000000)">
                <mask id="mask-14" fill="white">
                    <use xlink:href="#path-13"></use>
                </mask>
                <g id="Clip-113"></g>
                <path d="M22.903,32.546 C17.733,32.546 13.542,28.355 13.542,23.185 C13.542,18.014 17.733,13.822 22.903,13.822 C28.075,13.822 32.267,18.014 32.267,23.185 C32.267,28.355 28.075,32.546 22.903,32.546 Z M22.903,0.99 C10.912,0.99 1.169,10.506 0.751,22.396 L0.71,22.396 C0.71,22.396 -2.152,35.276 22.806,59.311 C33.991,48.539 39.579,40.014 42.351,33.878 C44.1,30.706 45.099,27.063 45.099,23.185 C45.099,10.926 35.163,0.99 22.903,0.99 Z" id="Fill-112" fill="#484B78" mask="url(#mask-14)"></path>
            </g>
        </g>
        <path d="M90.115,94.788 C90.614,94.303 91.1,93.824 91.577,93.348 L100.427,93.072 C97.298,93.616 93.869,94.188 90.115,94.788 M95.401,89.374 C97.741,86.84 99.75,84.453 101.473,82.218 C108.846,80.861 117.273,79.99 124.353,79.99 C136.613,79.99 140.169,82.6 132.298,85.82 C129.844,86.824 126.567,87.768 122.85,88.593 L95.401,89.374 M116.114,83.361 C110.943,83.361 104.061,84.462 100.741,85.82 C97.421,87.179 98.92,88.28 104.091,88.28 C109.263,88.28 116.145,87.179 119.466,85.82 C122.785,84.462 121.286,83.361 116.114,83.361" id="Fill-107" fill="#D0CDC4"></path>
        <g id="Group-114" transform="translate(64.000000, 36.000000)">
            <mask id="mask-16" fill="white">
                <use xlink:href="#path-15"></use>
            </mask>
            <g id="Clip-113"></g>
            <path d="M22.903,32.546 C17.733,32.546 13.542,28.355 13.542,23.185 C13.542,18.014 17.733,13.822 22.903,13.822 C28.075,13.822 32.267,18.014 32.267,23.185 C32.267,28.355 28.075,32.546 22.903,32.546 Z M22.903,0.99 C10.912,0.99 1.169,10.506 0.751,22.396 L0.71,22.396 C0.71,22.396 -2.152,35.276 22.806,59.311 C33.991,48.539 39.579,40.014 42.351,33.878 C44.1,30.706 45.099,27.063 45.099,23.185 C45.099,10.926 35.163,0.99 22.903,0.99 Z" id="Fill-112" fill="#484B78" mask="url(#mask-16)"></path>
        </g>
        <mask id="mask-18" fill="white">
            <use xlink:href="#path-17"></use>
        </mask>
        <use id="Oval" fill="#FFFFFE" xlink:href="#path-17"></use>
        <path d="M79.8880063,169.493775 C79.1228916,169.252876 79.8700524,168.96877 79.3539255,168.767725 C78.7837395,168.566088 77.429301,167.994127 76.9417821,168.441792 C76.618019,168.739709 76.1374054,168.696501 75.6502811,168.730633 C74.9719767,169.043742 74.6160544,169.878305 73.9197961,169.248536 C73.4529932,168.827111 73.0544549,168.33979 72.6326356,167.875157 C70.4722421,165.494581 67.2172493,164.041889 65.5315505,161.235942 C67.1835116,161.882679 68.9246507,162.207626 70.6316575,162.667524 C72.0932278,163.06034 73.622668,164.101867 75.1548703,163.705499 C75.9213661,163.507611 76.3589691,162.800501 76.8993634,162.289504 C77.103565,162.0782 77.3446609,161.925098 77.6218621,161.829804 C77.6029217,161.471514 77.7400425,161.193129 78.0326328,160.994452 C79.6634833,159.783053 76.7983477,158.302148 75.6887539,158.628081 C74.7707346,158.897588 74.378707,159.39655 73.5338847,159.813634 C72.6762381,159.670397 71.8213536,159.490857 71.0069149,159.18051 C70.0993523,158.834453 69.3640293,158.1743 68.4321993,157.945633 C67.6471577,157.75327 66.8650756,157.550252 66.0818096,157.34901 C65.1081528,157.097852 64.133115,156.849061 63.1527501,156.626314 C63.0600209,155.911904 62.8836381,155.2117 62.6608907,154.527871 C62.1601529,152.995077 61.4331164,151.55008 60.8952869,150.030702 C60.7157474,149.524637 60.5579104,149.010877 60.437757,148.487253 C60.5537672,148.322314 60.6198614,148.140012 60.6360397,147.94094 C60.3813303,147.194963 59.9449111,146.515278 59.79102,145.734971 C60.1536505,144.247555 59.9912757,142.765071 60.3576547,141.265028 C60.7471175,139.671072 61.9020895,137.94769 61.3541979,136.383723 C60.6464964,134.360056 63.711493,135.602035 64.6468743,135.889496 C66.5780096,136.481779 68.0466826,136.898074 69.6544493,135.473398 C70.4542882,134.764316 71.1168088,134.202811 71.514558,133.198178 C71.7337541,132.642987 71.8576561,132.189008 72.3702316,131.88024 C74.0953897,130.84404 72.566936,129.438896 71.2991105,129.077252 C70.1066523,128.10182 68.4558749,127.616866 67.4662371,126.399154 C67.5191125,125.585307 68.1198794,125.11298 67.5299638,124.37667 C66.9576075,123.662853 66.2467492,123.074318 65.5706151,122.465265 C64.9149998,121.873179 64.6121502,121.124637 63.989286,120.532748 C63.4820375,120.309606 62.7376389,120.272712 62.1873798,120.209182 C60.3953383,120.000838 58.7603446,119.880684 56.9558735,120.178799 C56.0950702,120.320655 55.3676391,120.755298 54.5311031,120.9157 C53.6647755,121.081232 52.8643448,121.30023 52.2629859,121.937497 C51.1739109,123.090891 49.0367983,123.774128 49.2145622,125.531642 C49.3587858,126.952964 46.9545342,128.991034 46.1061605,130.026642 C43.8627053,132.761759 42.9908534,136.515911 40.8440733,139.392687 C39.7309281,140.884839 38.3930625,142.187191 37.1646963,143.580694 C36.5315728,144.300036 35.9246897,145.044829 35.3882413,145.839735 C34.7580772,146.771763 34.121205,147.164185 33.3038069,147.917265 C29.5942436,148.539339 25.8144428,148.301006 22.0703527,148.825616 C20.2341169,149.082891 18.4132702,149.468407 16.6476664,150.040369 C15.7971225,150.315597 15.0572617,150.604833 14.3205576,151.110306 C13.3901087,151.74777 13.1332291,151.679703 12.1714101,151.175217 C9.01309236,149.518323 5.25203475,149.390673 1.81099159,148.472259 C-0.840274846,147.762584 -3.26524253,146.901386 -5.61385659,145.474935 C-7.63436705,144.247358 -9.61206424,142.944019 -11.4986106,141.516581 C-13.542402,139.970765 -15.3896864,138.237123 -17.195144,136.42259 C-18.2848109,135.327991 -20.6624275,131.984017 -22.4475636,132.80477 C-23.5579467,133.946523 -22.7685646,134.692302 -22.0480388,135.874304 C-21.4644366,136.832572 -20.8472941,137.771899 -20.199176,138.688537 C-18.8567726,140.585146 -17.379024,142.384092 -15.7823058,144.072553 C-12.573283,147.466443 -8.64748308,151.04658 -4.33300961,152.950883 C-1.9299418,154.01135 0.547703975,154.883991 3.01035524,155.794118 C4.30382918,156.271378 7.30786124,157.957866 6.41016349,159.778515 C5.42466893,161.775942 5.37139896,164.14764 5.75020768,166.323225 C6.08935986,168.274287 6.76825611,170.081126 4.73156736,171.290552 C3.39350448,172.085458 1.7847512,172.050537 0.314499858,172.421454 C-0.374458499,172.595272 -1.03934672,172.867935 -1.59808958,173.314811 C-2.50663862,174.040861 -2.54294112,174.874832 -2.7469454,175.969037 C-3.18928349,178.344878 -3.53889237,180.802202 -4.18503745,183.128127 C-4.67078072,184.87479 -5.74821531,187.251223 -3.58703265,188.161942 C-3.03874649,188.391792 -2.40384729,188.50583 -1.81708837,188.36062 C-1.43966072,188.621642 -1.05828716,188.676096 -0.620881463,188.750871 C-0.00156866671,188.857017 0.0189501389,189.267196 0.513769028,188.732128 C0.988069111,188.21975 1.15103578,188.184829 1.05554441,187.46233 C0.892183154,186.231991 0.86692924,185.394271 -0.229840379,184.722083 C-1.02395761,184.234959 -0.662905555,182.907747 -0.486917338,182.132965 C-0.0826574081,180.354537 0.304635048,176.993004 2.34941294,176.474707 C4.4117502,175.952661 6.52064937,176.864367 8.53445176,176.41828 C9.91591981,176.112076 11.2557584,176.109906 12.4438761,175.295665 C13.2849498,174.719165 14.1137912,174.089593 15.0700859,173.71256 C16.3027926,175.078047 18.361184,175.83014 19.1965361,177.537147 C19.4664373,180.008479 17.3476734,181.621376 15.7892306,183.174491 C14.0944562,184.865123 13.9595056,187.823777 13.3571603,190.092486 C12.9826921,191.502759 12.549035,192.810636 12.5160865,194.259579 C12.4941866,195.234222 12.3219471,196.197422 12.2313881,197.166147 C12.1506939,198.023793 11.9413627,199.286292 12.7173287,199.855294 C13.4512706,200.393321 14.596575,200.533598 15.4388325,200.817508 C16.4485945,201.157843 17.5864018,201.014409 18.4890319,200.451918 C18.6614688,199.623471 18.4614104,199.035725 18.2745709,198.182814 C18.0305155,197.066709 17.8874758,196.504415 16.8475275,195.991642 C16.0461103,195.595669 16.6082072,193.55681 16.6892959,192.697585 C16.887184,190.604075 18.4507565,187.894211 19.8265029,186.321958 C21.1677225,184.789361 23.6658871,183.676808 25.5425686,182.95786 C26.352075,181.928369 27.3083697,181.026922 28.1385921,180.014595 C28.4822821,178.868502 28.8044668,177.715305 29.1657162,176.574539 C29.567214,175.304938 29.4616605,174.265976 29.4802064,172.944683 C29.4944117,172.011275 28.9348796,171.078458 29.0611492,170.162412 C30.7474399,170.475718 32.6799562,170.948835 34.3881468,170.896748 C36.2032719,170.842097 38.0142538,170.687614 39.8177385,170.475324 C43.2591762,170.068894 46.8345781,168.160053 49.9678392,166.70598 C51.2555915,166.107778 53.6292622,164.241355 54.9481873,164.891446 C56.3683254,165.591453 58.1708236,166.104226 59.7671472,166.319279 C61.3656411,166.534727 62.7895278,166.476524 64.2297901,167.289976 C65.7507466,168.151174 67.1929819,169.145153 68.7944352,169.85897 C69.8055782,171.080826 71.1596221,171.95031 72.5024201,172.789214 C73.6763325,173.522169 75.764121,174.619531 77.1637403,174.349037 C78.3909227,174.111296 80.3883495,173.274168 79.8858361,171.607804 C80.4222845,171.109631 80.6635777,169.738817 79.8880063,169.493775" id="Fill-7" fill="#3D803F" mask="url(#mask-18)"></path>
        <mask id="mask-20" fill="white">
            <use xlink:href="#path-19"></use>
        </mask>
        <use id="Oval" fill="#FFFFFE" xlink:href="#path-19"></use>
        <path d="M378.107082,82.3318064 C380.909294,82.4599181 382.400012,83.0892503 383.456868,83.4663212 C384.513855,83.8431281 385.497409,84.0285599 385.497409,84.0285599 C385.497409,84.0285599 386.361173,83.6985072 387.236162,83.6279797 C388.111284,83.5577164 388.478053,83.7694309 388.849313,83.3305493 C389.220705,82.8919319 388.830162,82.1391106 388.521109,81.003143 C388.211792,79.8675716 388.403828,79.2956916 388.761352,79.0418455 C389.119008,78.7878674 390.214957,79.0657509 390.718159,79.6726305 C391.22136,80.2796421 391.671996,80.6720337 391.671996,80.6720337 C391.671996,80.6720337 392.056728,80.5469597 392.485836,80.4416968 C392.914944,80.336566 393.898234,80.0120604 393.898234,80.0120604 C393.898234,80.0120604 394.423492,79.1224106 394.811129,78.5632097 C395.198766,78.0046692 395.821098,76.8500791 396.090001,77.055454 C396.359035,77.260961 396.116019,78.6586991 396.053812,79.225032 C395.991473,79.7913649 396.4326,80.4662626 396.402487,80.770825 C396.372375,81.0757836 396.694899,81.5171746 397.042914,82.0442815 C397.390796,82.5709923 397.566851,83.1268913 397.395419,83.6763188 C397.224119,84.2258783 397.699981,84.7039858 397.523927,85.1449805 C397.347872,85.5863715 397.374287,85.6934835 397.077913,85.8581796 C396.781539,86.0231399 396.572467,86.7038488 396.143358,86.8091117 C395.714382,86.9145067 395.273916,86.7599802 394.88826,86.8633941 C394.502472,86.96694 393.649011,87.2856343 393.41907,89.4851931 C393.188997,91.6851481 392.561778,93.7280672 392.743116,94.9129022 C392.924453,96.0973409 393.956875,98.9143452 394.452416,99.8467869 C394.94809,100.779361 396.882576,104.403204 397.430154,104.531052 C397.977733,104.659296 397.957922,104.204962 398.641932,104.478619 C399.325811,104.752804 399.931766,105.225232 399.557205,105.588172 C399.182643,105.951375 399.211831,106.123599 398.409086,106.114882 C397.606605,106.106165 396.983613,106.241541 396.563353,106.042902 C396.14283,105.844263 395.132465,104.543599 394.36221,103.774797 C393.591823,103.006127 390.976231,99.6721853 390.432483,99.132003 C389.888867,98.5918207 387.748081,95.7143266 387.088636,95.5041971 C386.429191,95.2943316 385.274601,96.1678684 384.864908,97.7250197 C384.455214,99.2820389 383.999956,102.792167 384.028087,103.441442 C384.056219,104.090586 384.114332,104.933613 384.422856,105.050367 C384.731513,105.16712 385.459504,105.460588 385.420939,106.069185 C385.382241,106.67831 384.851436,106.939948 384.073389,106.995023 C383.295341,107.050362 382.43171,106.632348 382.353654,106.332144 C382.275731,106.032072 381.894037,104.227414 381.810434,103.797514 C381.726832,103.367481 381.646927,99.5119796 381.689455,98.4914446 C381.731983,97.4703812 381.730794,94.9337699 381.332723,94.7557342 C380.934917,94.5780948 380.575411,94.7884886 379.470877,94.8147713 C378.366211,94.8409219 377.701219,94.5009637 376.894644,94.9045815 C376.088333,95.3079352 375.553697,96.9786701 375.097118,97.4537399 C374.640671,97.9286777 373.70321,99.3132084 373.818907,99.9804457 C373.934471,100.647419 375.20423,102.934146 375.46468,102.944712 C375.725261,102.955014 375.971051,102.61915 376.441234,102.967429 C376.911681,103.315576 377.431788,103.81323 377.098698,104.131132 C376.765608,104.44943 376.427763,104.6589 375.602697,104.629711 C374.777631,104.600391 374.234675,104.580184 373.884812,104.010153 C373.53508,103.439725 372.027324,101.163564 371.692385,100.939831 C371.357578,100.715569 370.759415,99.4192637 370.97879,98.9761558 C371.198032,98.5330478 371.891684,97.028594 371.900401,96.2259809 C371.909118,95.4233678 372.12004,94.2872681 371.919816,94.1656281 C371.719328,94.0442521 370.135498,96.0204739 369.368545,96.3354702 C368.601591,96.6507306 366.862838,97.5496256 366.262431,98.204448 C365.662155,98.8591383 364.828636,101.648407 364.859806,101.863952 C364.890843,102.079364 365.247178,103.299991 364.918711,103.726062 C364.590243,104.152 364.346434,104.53092 363.822497,104.445336 C363.29856,104.35962 362.823226,103.903041 362.786774,103.557932 C362.750321,103.212558 362.748604,101.673369 363.053563,101.204771 C363.358522,100.736437 363.872025,97.0717822 364.366246,96.4652988 C364.860202,95.8582872 366.047942,94.2460611 366.528956,93.3366002 C367.009969,92.4270072 367.319418,88.5543363 367.388361,87.1424662 C367.457435,85.7299359 368.151087,84.7243252 368.283822,84.2851794 C368.416556,83.8457696 367.107571,76.8890409 367.271607,75.418266 C367.435643,73.9477551 368.880399,69.0075308 368.904701,68.0633345 C368.928871,67.1192702 368.942606,66.9344989 368.619157,66.4714478 C368.295444,66.0083967 368.448122,65.524742 369.094491,65.4320261 C369.740729,65.338782 370.809735,65.4876293 371.033336,66.1499799 C371.257069,66.8125946 371.18641,67.6830937 371.009959,69.1211144 C370.833772,70.5597954 369.893142,74.372901 370.277345,76.7411182 C370.66168,79.1089391 370.711208,80.754712 371.595311,81.1502733 C372.479677,81.5455705 375.30487,82.2035627 378.107082,82.3318064" id="Fill-4" fill="#484B78" mask="url(#mask-20)"></path>
        <mask id="mask-22" fill="white">
            <use xlink:href="#path-21"></use>
        </mask>
        <use id="Oval" fill="#FFFFFE" xlink:href="#path-21"></use>
        <path d="M92.1972831,53.6334874 C94.569987,54.2106497 94.5380152,55.7496376 94.8585124,56.1345238 C95.179121,56.5191873 95.3715084,56.7437692 95.7563946,56.9039621 C96.141058,57.0643778 98.257431,57.9941203 100.117139,57.833816 C101.976958,57.6737346 103.547806,57.4170695 104.606104,57.0322946 C105.664291,56.6475198 106.818504,56.1345238 107.042974,56.7116861 C107.267334,57.2887369 106.016982,59.1164731 103.67625,59.5973859 C101.335518,60.0782987 98.4176239,60.4952681 97.3595488,59.9821607 C96.3014737,59.4691648 96.1090863,59.3088605 96.141058,59.7256071 C96.1732526,60.1425764 96.3298806,62.1651508 96.5259443,62.4190309 C97.0196681,63.058577 97.3595488,64.0864627 97.5198531,64.8239292 C97.6802687,65.5613958 97.8725448,67.8058785 98.0971267,68.2547082 C98.3215973,68.7035379 98.8025101,70.9482434 99.0267578,71.3329068 C99.2513398,71.7176816 99.7644472,72.2627608 99.7644472,72.6154524 C99.7644472,72.9681441 99.8286134,73.3850021 99.0590638,73.3850021 C98.2894027,73.3850021 97.2313276,73.6094727 97.1029951,73.0964767 C96.9748854,72.5834807 97.0390516,72.326927 97.1991331,72.1024565 C97.3595488,71.8778745 96.4937497,69.6015315 96.2374188,69.1203958 C95.9807537,68.639483 94.9548732,68.0623208 94.4737376,67.4852699 C93.9929361,66.9081077 93.0309991,65.9781423 92.3575874,65.6897283 C91.6841757,65.4009801 91.9727012,66.9400794 92.1653114,67.4531868 C92.3575874,67.9661828 91.8882601,70.0015681 91.3957617,70.3710811 C91.0040801,70.664731 90.4455216,71.6819223 90.0193061,72.2392554 C89.7384672,72.6066519 88.9908633,73.4811401 88.9908633,73.4811401 C88.9908633,73.4811401 88.8304477,73.7698883 88.8946139,74.0904969 C88.9588916,74.4112169 89.439693,74.9882677 89.343555,75.340848 C89.2473056,75.6936511 88.477756,75.9181216 87.7723726,75.9822879 C87.0669892,76.0463428 86.169107,75.9502048 86.2013015,75.4692919 C86.2332733,74.9882677 86.4577438,74.2827729 86.5539932,73.8019715 C86.6501312,73.3208358 86.7828084,71.151548 86.9066849,70.7236614 C87.2649466,69.4851187 86.9066849,67.9340996 86.778241,67.6134911 C86.6501312,67.2928825 86.1050521,66.138558 85.8486098,66.138558 C85.5920561,66.138558 84.4057599,67.9661828 83.9247357,68.4151239 C83.4437114,68.8639536 81.680253,70.4671077 81.8083627,70.8839657 C81.9366953,71.3008237 82.0329447,72.3590102 81.9045007,72.6154524 C81.776391,72.8718947 82.289387,73.160643 81.872529,73.9621644 C81.455671,74.7639085 81.0388131,75.4050143 80.4295677,75.5333468 C79.8203223,75.661568 79.2431601,74.4433 79.3394095,73.7698883 C79.4355475,73.0964767 79.6921012,69.7296412 79.7241843,68.8960367 C79.756156,68.0623208 80.8785088,66.1706412 80.8463142,65.5613958 C80.8143425,64.9521504 80.1731254,63.3489962 80.3654014,62.2587266 C80.5577888,61.1685684 80.3013465,59.533331 80.5899834,58.7958645 C80.8785088,58.058398 81.0710076,58.058398 80.9104805,57.8018443 C80.7502876,57.5452906 79.756156,56.4872155 79.7883506,55.3008079 C79.8203223,54.1142889 80.1731254,53.0562138 80.3975959,52.7356052 C80.6220665,52.4149967 80.1089591,49.4330475 80.3334297,49.0803558 C80.5577888,48.7276641 81.6480584,49.6254349 82.3213587,50.0422928 C82.9947703,50.4591508 83.5398495,50.2667634 84.4698148,50.2987351 C85.3996687,50.3308183 85.8805816,50.5873719 86.6501312,50.2667634 C87.4196809,49.9460434 89.343555,48.1824736 89.2792774,49.7858506 C89.2153339,51.3888933 89.0708484,52.5387618 89.1831394,52.9600758 C89.3143683,53.4519058 89.0550296,53.7615972 89.535831,53.7937917 C90.0169667,53.8257635 91.1070135,53.4090169 92.1972831,53.6334874" id="Fill-6" fill="#484B78" mask="url(#mask-22)"></path>
    </g>
</svg>
